<svg width="15" height="16" viewBox="0 0 15 16" fill="none" xmlns="http://www.w3.org/2000/svg">
<path id="add icon" d="M13.9286 9.04816H8.57143V14.5244C8.57143 15.1267 8.08929 15.6196 7.5 15.6196C6.91071 15.6196 6.42857 15.1267 6.42857 14.5244V9.04816H1.07143C0.482143 9.04816 0 8.5553 0 7.95292C0 7.35054 0.482143 6.85768 1.07143 6.85768H6.42857V1.38149C6.42857 0.779112 6.91071 0.286255 7.5 0.286255C8.08929 0.286255 8.57143 0.779112 8.57143 1.38149V6.85768H13.9286C14.5179 6.85768 15 7.35054 15 7.95292C15 8.5553 14.5179 9.04816 13.9286 9.04816Z" fill="#B6B6B6"/>
</svg>
