<svg width="20" height="21" viewBox="0 0 20 21" fill="none" xmlns="http://www.w3.org/2000/svg">
<path id="cross icon" d="M10 0.266724C4.489 0.266724 0 4.85548 0 10.4889C0 16.1224 4.489 20.7112 10 20.7112C15.511 20.7112 20 16.1224 20 10.4889C20 4.85548 15.511 0.266724 10 0.266724ZM10 2.31117C14.4301 2.31117 18 5.96038 18 10.4889C18 15.0175 14.4301 18.6667 10 18.6667C5.56988 18.6667 2 15.0175 2 10.4889C2 5.96038 5.56988 2.31117 10 2.31117ZM6.70703 5.67731L5.29297 7.1228L8.58594 10.4889L5.29297 13.8551L6.70703 15.3006L10 11.9344L13.293 15.3006L14.707 13.8551L11.4141 10.4889L14.707 7.1228L13.293 5.67731L10 9.04346L6.70703 5.67731Z" fill="#BB271A"/>
</svg>
