<svg width="66" height="67" viewBox="0 0 66 67" fill="none" xmlns="http://www.w3.org/2000/svg">
<g id="desktop 1">
<path id="Vector" d="M28.837 46.9469L37.2077 46.9414L37.7628 49.7407C37.8709 49.9169 37.8868 50.3021 37.9225 50.5109C38.0469 51.2359 39.0268 55.1634 39.0557 55.183C39.1164 55.224 39.6849 55.1866 39.7919 55.1861L42.6105 55.1812C43.0987 55.1814 43.6467 55.134 44.1262 55.2218C47.2345 55.79 47.1278 59.7653 44.3339 60.1691C43.9389 60.2262 43.536 60.2151 43.1379 60.2159L21.7358 60.2212C19.4219 60.1214 18.5231 56.8767 20.95 55.578C21.6115 55.2241 22.2391 55.1841 22.9797 55.1826L24.3412 55.1816C25.1771 55.1816 26.0211 55.1571 26.8556 55.2091L28.1809 49.708C28.4711 48.8784 28.4794 47.8876 28.837 46.9469Z" fill="#0039CF"/>
<path id="Vector_2" d="M28.8368 46.9469L37.2075 46.9414L37.7625 49.7407L28.1807 49.72C28.4708 48.8784 28.4792 47.8876 28.8368 46.9469Z" fill="#2CE4F0"/>
<path id="Vector_3" d="M2.16504 37.6699C2.88441 37.7736 3.61445 37.7265 4.30504 37.7273L25.5764 37.7349L63.7969 37.7228L63.8348 40.8047C63.835 41.5536 63.8957 42.3719 63.78 43.1135C63.4932 44.9484 62.0722 46.5153 60.2227 46.8524C59.3406 47.0132 58.3494 46.9317 57.4525 46.932L37.2076 46.933L28.837 46.9325L22.1634 46.9311L7.75588 46.9365C7.22961 46.9388 6.67101 46.9822 6.15047 46.9094C4.4233 46.6677 2.9909 45.584 2.46357 43.8902C2.14624 42.8709 2.17286 41.7886 2.17168 40.7345L2.16504 37.6699Z" fill="url(#paint0_linear_216_29262)"/>
<path id="Vector_4" d="M32.76 40.9196C33.4106 40.8725 34.2032 40.848 34.7815 41.1987C35.9725 41.9204 35.6186 43.5087 34.2931 43.7181L33.2062 43.8107C32.6686 43.8481 31.8066 43.9344 31.2992 43.6939L31.2597 43.6743C29.835 42.9948 30.4545 41.2577 31.955 41.0039L32.76 40.9196Z" fill="#2CE4F0"/>
<path id="Vector_5" d="M2.1988 40.1439C2.20801 39.4096 2.16477 38.6462 2.16368 37.9092L2.16171 15.9351C2.16 14.8912 2.05145 13.6888 2.33206 12.6797C2.81626 10.9385 4.16743 9.82765 5.91343 9.46101C6.43604 9.35125 7.04032 9.39937 7.5752 9.39807L20.1957 9.39854L58.6776 9.40161C59.4508 9.40243 60.1698 9.41038 60.9077 9.66939C63.0942 10.4369 63.8389 12.3341 63.8407 14.4559L63.8409 36.93C63.8408 37.2807 63.7947 40.3437 63.8406 40.4431L25.5763 40.4846L4.30491 40.4774C3.61432 40.4766 2.88428 40.5237 2.19982 40.4436L2.1988 40.1439Z" fill="url(#paint1_linear_216_29262)"/>
</g>
<defs>
<linearGradient id="paint0_linear_216_29262" x1="51.8579" y1="57.7149" x2="13.9515" y2="24.3533" gradientUnits="userSpaceOnUse">
<stop stop-color="#002ED0"/>
<stop offset="1" stop-color="#497EFF"/>
</linearGradient>
<linearGradient id="paint1_linear_216_29262" x1="8.16094" y1="5.1018" x2="58.0265" y2="47.2379" gradientUnits="userSpaceOnUse">
<stop stop-color="#BEFFCD"/>
<stop offset="1" stop-color="#00DFFA"/>
</linearGradient>
</defs>
</svg>
