<svg xmlns="http://www.w3.org/2000/svg" width="30" height="30" fill="none"><rect width="30" height="30" fill="#B10000" rx="2"/><path fill="#fff" d="M20.444 14.645a1 1 0 0 0-.615-1.693l-2.266-.23a1 1 0 0 1-.84-.657l-.781-2.174c-.318-.882-1.566-.882-1.882 0l-.783 2.18a1 1 0 0 1-.842.657l-2.257.226a1 1 0 0 0-.615 1.695l1.94 1.984a1 1 0 0 1 .266.893l-.54 2.733c-.176.888.824 1.534 1.56 1.009l1.63-1.161a1 1 0 0 1 1.161 0l1.634 1.163c.736.525 1.735-.12 1.561-1.007l-.538-2.739a1 1 0 0 1 .266-.89l1.94-1.989Zm-4.872 3.936a.985.985 0 0 0-1.144-.001c-.726.517-1.71-.12-1.538-.994l.106-.532a1 1 0 0 0-.266-.893l-.472-.484a1 1 0 0 1 .613-1.693l.33-.034a1 1 0 0 0 .84-.658l.019-.054c.316-.884 1.566-.885 1.883-.001l.023.064a1 1 0 0 0 .84.657l.33.034a1 1 0 0 1 .613 1.693l-.472.484a1 1 0 0 0-.266.893l.104.524c.174.877-.815 1.514-1.543.995Z"/></svg>