<svg xmlns="http://www.w3.org/2000/svg" width="30" height="30" fill="none"><rect width="30" height="30" fill="red" rx="2"/><g fill="#fff" clip-path="url(#a)"><path d="M24.19 8.182H5.337c-1.152 0-2.095 1.056-2.095 2.348v9.394c0 1.292.943 2.349 2.095 2.349h18.851c1.152 0 2.095-1.057 2.095-2.349V10.53c0-1.292-.943-2.348-2.095-2.348Zm0 11.742H5.337V10.53h18.851v9.394ZM8.48 18.75h2.094V16.4h2.095v-2.348h-2.095v-2.349H8.48v2.349H6.385V16.4H8.48v2.349Z"/><path d="M17.382 18.75c.867 0 1.57-.789 1.57-1.762 0-.972-.703-1.76-1.57-1.76-.868 0-1.571.788-1.571 1.76 0 .973.703 1.762 1.57 1.762ZM21.571 15.227c.868 0 1.571-.789 1.571-1.761 0-.973-.703-1.762-1.571-1.762s-1.57.789-1.57 1.762.702 1.761 1.57 1.761Z"/></g><defs><clipPath id="a"><path fill="#fff" d="M4.054 1.818h24.324v27.273H4.054z"/></clipPath></defs></svg>