<svg width="100" height="30" viewBox="0 0 100 30" fill="none" xmlns="http://www.w3.org/2000/svg">
<path d="M37.7046 12.4339C37.7046 9.34767 36.83 7.76323 35.081 7.67647C34.385 7.64341 33.7055 7.75497 33.0445 8.01319C32.5169 8.20324 32.1618 8.39122 31.975 8.58127V15.9478C33.0938 16.6543 34.0874 16.9827 34.9537 16.9311C36.7869 16.8092 37.7046 15.3115 37.7046 12.4339ZM39.8621 12.562C39.8621 14.1299 39.4967 15.4313 38.7618 16.4663C37.9427 17.6376 36.8074 18.2408 35.3561 18.2738C34.2619 18.3089 33.1348 17.964 31.975 17.2409V23.9361L30.0986 23.2626V8.40155C30.4066 8.02145 30.8028 7.69506 31.2831 7.41825C32.3999 6.7634 33.7569 6.42668 35.354 6.41016L35.3807 6.43701C36.8403 6.41842 37.9653 7.02162 38.7556 8.24455C39.4926 9.36626 39.8621 10.804 39.8621 12.562Z" fill="#646464"/>
<path d="M51.3299 16.9559C51.3299 19.0588 51.1205 20.5152 50.7017 21.3249C50.2808 22.1347 49.4802 22.7813 48.2978 23.2626C47.3391 23.6427 46.3024 23.8493 45.1897 23.8844L44.8797 22.6945C46.0108 22.5396 46.8074 22.3847 47.2693 22.2298C48.1787 21.9199 48.8028 21.4448 49.1456 20.8085C49.4207 20.29 49.5562 19.3005 49.5562 17.8359V17.3442C48.2731 17.9309 46.9285 18.2222 45.5223 18.2222C44.5985 18.2222 43.7835 17.9309 43.0814 17.3442C42.2931 16.7059 41.8989 15.8961 41.8989 14.9149V7.05674L43.7753 6.41016V14.32C43.7753 15.1648 44.0462 15.8156 44.5882 16.2721C45.1302 16.7286 45.8322 16.9476 46.6924 16.9311C47.5526 16.9125 48.4743 16.5778 49.4535 15.923V6.69523H51.3299V16.9559Z" fill="#646464"/>
<path d="M58.6544 18.1702C58.4306 18.1888 58.2254 18.1971 58.0365 18.1971C56.9752 18.1971 56.1478 17.943 55.5566 17.4328C54.9674 16.9225 54.6718 16.2181 54.6718 15.3195V7.88274H53.3867V6.69493H54.6718V3.54051L56.5461 2.86914V6.69493H58.6544V7.88274H56.5461V15.2678C56.5461 15.9764 56.735 16.4784 57.1127 16.7717C57.437 17.0134 57.9523 17.1518 58.6544 17.1869V18.1702Z" fill="#646464"/>
<path d="M70.0148 18.0155H68.1385V10.7275C68.1385 9.98589 67.9661 9.34757 67.6232 8.8146C67.227 8.2114 66.6768 7.9098 65.9706 7.9098C65.1105 7.9098 64.0348 8.36633 62.7435 9.2794V18.0155H60.8672V0.594939L62.7435 0V7.93459C63.9424 7.05664 65.2521 6.61663 66.6748 6.61663C67.6684 6.61663 68.4731 6.95335 69.089 7.62472C69.7069 8.29609 70.0148 9.13273 70.0148 10.1326V18.0155Z" fill="#646464"/>
<path d="M79.9877 12.1364C79.9877 10.9507 79.764 9.97153 79.3185 9.19687C78.7888 8.25281 77.9656 7.75497 76.853 7.70332C74.796 7.82314 73.7696 9.30635 73.7696 12.1488C73.7696 13.4523 73.9831 14.541 74.4142 15.4148C74.9643 16.5283 75.7896 17.0777 76.8899 17.0592C78.9551 17.0426 79.9877 15.4024 79.9877 12.1364ZM82.0427 12.1488C82.0427 13.8366 81.6136 15.2413 80.7576 16.363C79.8153 17.619 78.5138 18.249 76.853 18.249C75.2066 18.249 73.9235 17.619 72.9977 16.363C72.158 15.2413 71.7393 13.8366 71.7393 12.1488C71.7393 10.5623 72.1929 9.22785 73.1003 8.14126C74.059 6.98857 75.3195 6.41016 76.8776 6.41016C78.4358 6.41016 79.7044 6.98857 80.6816 8.14126C81.589 9.22785 82.0427 10.5623 82.0427 12.1488Z" fill="#646464"/>
<path d="M92.7997 18.0156H90.9234V10.3144C90.9234 9.46955 90.6709 8.81057 90.1659 8.33544C89.6608 7.86239 88.9875 7.63309 88.1479 7.65168C87.2569 7.66821 86.4091 7.96154 85.6044 8.52963V18.0156H83.728V8.2962C84.8078 7.50501 85.8014 6.98857 86.7088 6.74687C87.5649 6.52171 88.3203 6.41016 88.9711 6.41016C89.4166 6.41016 89.8353 6.45354 90.2295 6.5403C90.9665 6.71176 91.5659 7.02988 92.0278 7.49675C92.5431 8.01319 92.7997 8.63292 92.7997 9.358V18.0156Z" fill="#646464"/>
<path d="M11.5667 0.664746C10.6013 0.669259 9.6794 0.752109 8.8682 0.896551C6.47852 1.32138 6.04465 2.21058 6.04465 3.85041V6.01613H11.6918V6.73804H6.04465H3.92534C2.28413 6.73804 0.847045 7.73069 0.397543 9.61905C-0.120953 11.7835 -0.143951 13.1342 0.397543 15.3943C0.798959 17.0766 1.7576 18.2753 3.3988 18.2753H5.34041V15.6791C5.34041 13.8035 6.95311 12.149 8.8682 12.149H14.5087C16.0789 12.149 17.3323 10.8481 17.3323 9.26141V3.85041C17.3323 2.31041 16.0412 1.15357 14.5087 0.896551C13.5386 0.734054 12.5321 0.660232 11.5667 0.664746ZM8.51279 2.4066C9.0961 2.4066 9.57245 2.89376 9.57245 3.49277C9.57245 4.08965 9.0961 4.57232 8.51279 4.57232C7.92739 4.57232 7.45314 4.08965 7.45314 3.49277C7.45314 2.89376 7.92739 2.4066 8.51279 2.4066Z" fill="url(#paint0_linear_277_18379)"/>
<path d="M18.0363 6.73779V9.26116C18.0363 11.2175 16.3881 12.8641 14.5085 12.8641H8.86799C7.32295 12.8641 6.04443 14.1947 6.04443 15.7517V21.1627C6.04443 22.7027 7.37522 23.6085 8.86799 24.0503C10.6555 24.5792 12.3697 24.6748 14.5085 24.0503C15.9302 23.6361 17.3321 22.8025 17.3321 21.1627V18.997H11.6915V18.2751H17.3321H20.1556C21.7968 18.2751 22.4084 17.1231 22.9792 15.3941C23.5688 13.614 23.5437 11.9022 22.9792 9.6188C22.5736 7.97472 21.7989 6.73779 20.1556 6.73779H18.0363ZM14.8639 20.4408C15.4493 20.4408 15.9236 20.9235 15.9236 21.5203C15.9236 22.1193 15.4493 22.6065 14.8639 22.6065C14.2806 22.6065 13.8043 22.1193 13.8043 21.5203C13.8043 20.9235 14.2806 20.4408 14.8639 20.4408Z" fill="url(#paint1_linear_277_18379)"/>
<path d="M96.4536 5.01164H96.7826V2.93546H97.5619V2.68799H95.6743V2.93546H96.4536V5.01164ZM97.8536 5.01164H98.1346V3.11544L98.7447 5.0114H99.0576L99.6932 3.12186V5.01164H99.9998V2.68799H99.5942L98.8996 4.67867L98.3071 2.68799H97.8536V5.01164Z" fill="#646464"/>
<path opacity="0.44382" d="M19.3237 27.7291C19.3237 27.923 19.1279 28.115 18.7476 28.2941C18.3673 28.4733 17.8099 28.6361 17.1072 28.7732C16.4044 28.9103 15.5702 29.0191 14.6521 29.0933C13.7339 29.1675 12.7499 29.2057 11.7561 29.2057C10.7623 29.2057 9.77822 29.1675 8.86008 29.0933C7.94193 29.0191 7.10769 28.9103 6.40497 28.7732C5.70226 28.6361 5.14483 28.4733 4.76453 28.2941C4.38422 28.115 4.18848 27.923 4.18848 27.7291C4.18848 27.5352 4.38422 27.3431 4.76453 27.164C5.14483 26.9848 5.70226 26.8221 6.40497 26.6849C7.10769 26.5478 7.94193 26.4391 8.86008 26.3648C9.77822 26.2906 10.7623 26.2524 11.7561 26.2524C12.7499 26.2524 13.7339 26.2906 14.6521 26.3648C15.5702 26.4391 16.4044 26.5478 17.1072 26.6849C17.8099 26.8221 18.3673 26.9848 18.7476 27.164C19.1279 27.3431 19.3237 27.5352 19.3237 27.7291Z" fill="url(#paint2_radial_277_18379)"/>
<defs>
<linearGradient id="paint0_linear_277_18379" x1="1.84314e-08" y1="0.664551" x2="13.0901" y2="11.7496" gradientUnits="userSpaceOnUse">
<stop stop-color="#5A9FD4"/>
<stop offset="1" stop-color="#306998"/>
</linearGradient>
<linearGradient id="paint1_linear_277_18379" x1="14.7282" y1="21.3383" x2="10.0178" y2="14.7787" gradientUnits="userSpaceOnUse">
<stop stop-color="#FFD43B"/>
<stop offset="1" stop-color="#FFE873"/>
</linearGradient>
<radialGradient id="paint2_radial_277_18379" cx="0" cy="0" r="1" gradientUnits="userSpaceOnUse" gradientTransform="translate(11.7561 27.7291) rotate(-90) scale(1.47663 6.44993)">
<stop stop-color="#B8B8B8" stop-opacity="0.498039"/>
<stop offset="1" stop-color="#7F7F7F" stop-opacity="0"/>
</radialGradient>
</defs>
</svg>
