<svg xmlns="http://www.w3.org/2000/svg" width="52" height="46" fill="none"><g clip-path="url(#a)"><path fill="#676767" fill-rule="evenodd" d="M41.766 15.6 30.956 4.869l3.56-3.535 16.89 16.768-16.89 16.767-3.56-3.535 10.81-10.732H15.11a10.11 10.11 0 0 0-7.122 2.928 9.964 9.964 0 0 0-2.95 7.072 9.964 9.964 0 0 0 2.95 7.07 10.11 10.11 0 0 0 7.122 2.93h6.295v5H15.11c-4.007 0-7.85-1.58-10.684-4.394A14.945 14.945 0 0 1 0 30.6c0-3.978 1.592-7.793 4.425-10.606A15.165 15.165 0 0 1 15.11 15.6h26.657Z" clip-rule="evenodd"/></g><defs><clipPath id="a"><path fill="#fff" d="M0 .6h52v45H0z"/></clipPath></defs></svg>