<svg xmlns="http://www.w3.org/2000/svg" width="152" height="117" fill="none"><path fill="#fff" d="m76.319 22.148 34.677 3.191-1.285 11.92-34.677-3.191z"/><path fill="#2CE4F0" d="m116.8 29.32.039-2.549c-.012-1.105-.157-2.328.043-3.416.411-2.223 4.577-2.227 4.772.445.079 1.082.021 2.201.048 3.29l.209 8.08c.073 4.855-5.383 3.397-4.97.015l-.141-5.865ZM67.287 37.31c-.001 1.256-1.523 2.81-2.832 2.43l-.07-.023c-2.145-.661-2.25-2.457-2.306-4.322l-.206-7.54c-.02-.805-.116-1.714.019-2.51.488-2.89 4.843-3.495 5.08.573l.315 11.393ZM87.659 17.622c-3.827-3.884-1.283-10.574 4.329-10.493 4.915.071 7.24 5.976 4.13 10.305-1.203 1.03-7.08.747-8.46.188Zm4.137-5.786c-1.36.48-1.683 1.934-.51 2.4l.507.142c1.463-.365 1.386-2.507.003-2.542Z"/><path fill="#0039CF" d="M87.659 17.61c1.38.57 7.256.855 8.459-.176l10.789-.314c4.467-.102 6.55 2.205 6.684 6.45l.102 3.569c.055 1.938-.46 1.815.896 1.91.727.05 1.493.11 2.203.272l.159 5.864-.139-.37c-.935.1-1.949.17-2.884.057l.066 2.932c.068 3.431-1.67 6.097-5.163 6.853-1.479.32-3.032.264-4.539.3l-27.152.655c-3.43.05-6.327-2.596-6.5-6.068l-.05-3.009c-.27-.231-.68-.175-1.009-.174l-2.252.024c-.003.26.009.529-.046.784l-.334-11.25c.018.512.01 3.584.18 3.826 1.019-.06 2.242-.061 3.225-.332l-.119-4.256c-.017-.708-.111-1.518.015-2.209.88-4.846 4.66-5.06 8.459-5.14l6.078-.15c.918-.022 1.853.042 2.767-.039l.105-.01ZM81.56 25.08c-5.147.83-4.35 8.198 1.066 7.944 5.352-1.012 4.025-8.426-1.066-7.944Zm19.733-.547c-5.586.994-4.44 7.846.582 7.816 4.98-.861 4.549-8.18-.582-7.816Z"/><path fill="#7DD2F4" d="m87.528 37.393 12.05-.3c.426-.01.925-.076 1.342.022l.235.055c1.861.529 2.468 3.85-1.137 3.952l-2.544.06-8.45.202c-1.467.035-3.008.166-4.47.059-2.577-.19-3.316-3.854.714-3.985l2.26-.065Z"/><path fill="url(#a)" d="M41.553 77.198c.97-.876 3.874-1.992 3.996-2.15.36-.468.58-1.459.755-2.026l1.33-4.364c.18-.552.526-1.199.624-1.754-1.842-1.503-3.277-3.5-3.548-5.948-1.02-9.232 12.364-12.837 15.833-4.328.106.26.194 1.022.383 1.171.014.01 3.878-.082 4.648-.113l-.096-4.893c-.017-.7-.13-1.585.022-2.264.567-2.533 3.336-2.6 5.296-2.65l40.671-.975c4.377-.099 6.054-.425 6.187 5.097l.089 3.291c.01.318-.044.87.084 1.153l4.136-.1c2.102-.054 1.388.362 2.132-1.325 2.965-6.716 12.455-6.658 15.124.148 1.654 4.218-.462 9.062-4.625 10.676l-.863.288 2.124 6.804c.807.287 1.619.524 2.392.902 3.219 1.573 6.102 5.913 4.824 9.602-.955 2.76-3.662 3.073-4.774.338-.267-.657-.011-1.465-.004-2.151.045-4.45-6.12-5.526-7.832-1.369-.556 1.35.127 2.575-.123 3.878l-.015.086c-.645 3.288-6.631 1.991-4.925-4.598.642-2.478 2.481-4.45 4.638-5.686l1.058-.526-2.044-7.192c-3.648-1.032-3.771-2.687-5.327-5.313-.41-.131-1.143-.017-1.582-.008l-4.249.147.706 24.618c.071 2.385.399 5.356-2.415 6.158-.299.085-.93.08-1.132.29l.239 9.188c.017.9.751.94 1.386 1.456 2.672 2.172 3.892 8.216.189 8.535-1.23.106-2.506.069-3.744.1l-11.178.266c-.511.013-1.187.122-1.679.009-3.882-.889-1.932-7.475 1.074-9.186.181-.103.282-.136.374-.336l-.297-9.904-11.39.248c-2.072.049-4.285-.045-6.34.23l.255 9.197c.029 1.013.478.798 1.164 1.353 1.636 1.324 2.53 2.958 2.691 5.086.135 1.775-.438 3.6-2.463 3.702l-14.04.334c-2.306.053-4.113-.165-4.248-2.943-.114-2.337 1.21-5.356 3.378-6.446.19-.318.123-.463.112-.836l-.26-9.11c-3.96-.615-3.75-2.967-3.85-6.394l-.665-24.406-5.05.202c-.997 2.808-3.875 5.098-6.78 5.599-.296.05-.631.05-.91.16l-2.364 7.122c3.51 1.264 7.178 5.688 6.277 9.574-.302 1.302-1.835 3.539-3.436 2.784l-.075-.034c-1.632-.77-1.704-1.907-1.606-3.39.229-3.458-3.039-5.647-6.085-4.09-.059.03-.261.162-.313.161-3.423 2.718-.11 5.314-2.613 7.271-.493.386-1.102.5-1.717.401l-.319-.077c-2.514-1.122-2.595-4.541-1.807-6.795.152-1.277 1.698-3.166 2.592-3.945Z"/><path fill="#2CE4F0" d="M40.707 88.508c.919-.174 2.35-.068 2.623-1.325l-.274-.089c.073-.303.06-.31.317-.477-.006-.253.034-.537.218-.724l.08-.076c.02-.26-.178-.416-.091-.658-.258-.613-.017-1.186-.047-1.79l.046-.172c-.005-.223.122-.591.238-.772l.028-.042c-.01-.444.625-.715.805-1.044l.05-.095c.266-.086.317-.264.655-.331-3.422 2.717-.109 5.314-2.612 7.27-.494.386-1.102.5-1.718.402l-.318-.077Z"/><path fill="#000691" d="m93.249 56.737 9.304-.231c1.288-.033 5.69-.742 6.274.88l.026.085c.322.94.213 2.257.241 3.25l.604 20.006c.13 2.746-1.452 2.85-3.717 2.883l-15.55.365-12.148.29c-1.254.029-2.538.165-3.245-1.148l-.047-.09c-.185-.325-.215-.618-.232-.984l-.605-20.84c-.116-3.483-.325-3.964 3.846-4.086l15.249-.38Z"/><path fill="url(#b)" d="m86.525 80.658 2.094.352 3.086.28.988.03c2.438.05 4.854-.286 7.025-1.096 3.246-1.212 5.507-3.763 5.652-6.533.203-3.877-3.343-8.203-6.797-10.984l-.983-.744c-.884-.65-1.81-1.264-2.84-1.776l-.915-.424a4.757 4.757 0 0 0-.71-.26l-.026-.006c-.265-.067-.589-.063-.86-.038.031.024.06.02.091.05-.044.25-.794.653-.886 1.075-.123.564.786.976 1.291 1.251l.707.404c1.45.869 2.733 1.925 3.875 3.02l.997.994c.413.444.783.915 1.146 1.382 1.204 1.547 2.296 3.19 2.539 4.983l.043.473c.021.167-.019.351-.04.517-.142 1.128-.827 2.156-1.799 2.995-1.901 1.64-5.43 2.802-8.319 2.662-.552-.026-1.114-.096-1.664-.147l-1.601-.158-.927-.146c-.385-.067-.795-.21-1.125-.264-.03-.017-.093-.03-.13-.042l-1.078-.384c-1.198-.49-2.778-1.41-3.601-2.264-.095-.039-.388-.404-.495-.493-.06-.087-.14-.17-.207-.253l-.302-.403c-1.4-2.03-.987-3.906.345-5.77.403-.564 1.123-1.471 1.73-1.937.008-.024.08-.079.102-.1l.34-.315c.132-.092.244-.22.365-.321l.875-.692a26.689 26.689 0 0 1 2.717-1.803l1.26-.665c.016-.022.007-.014.034-.032l.02-.013c.02-.044.06-.076.06-.125l.02-.467c.004-.054.035-.123.026-.175-.032-.173.033-.44.004-.658a.4.4 0 0 1 .004-.108l.008-.036c-.009-.093-.06-.277 0-.348.072-.086.091-.064.081-.174l-.028-.231c-.01-.08-.096-.159.04-.2l-.064-.096-.113.024c-.084.034-.144.085-.24.062-1.291.459-2.727 1.255-3.83 1.913-.396.236-.798.47-1.168.73v.003c-.161.09-.305.197-.453.3l-.86.63c-2.188 1.656-4.21 3.79-5.013 6.073-.098.276-.2.56-.248.844l-.067.506c-.017.15-.039.304-.031.455l.01.576c.15 2.528 1.929 4.747 4.628 6.275.128.073.268.161.41.219 1.013.594 3.014 1.211 4.195 1.475.199.045.408.105.612.128Z"/><path fill="#2CE4F0" d="M92.297 59.41c-.571.002-1.363.217-1.873.37l-.003.003c-.534.135-1.616.46-2.09.676.098.023.158-.027.244-.06l.115-.023.066.096c-.139.04-.05.118-.04.196l.03.23c.01.108-.01.086-.082.17-.061.071-.009.254.001.345l-.008.036a.392.392 0 0 0-.004.107c.03.216-.035.48-.002.65.01.052-.022.12-.026.173l-.018.463c.001.048-.04.08-.06.123l-.02.013c-.028.017-.019.01-.036.032l-1.28.653a27.034 27.034 0 0 0-2.76 1.776l-.889.682c-.123.1-.236.226-.371.316l-.345.31c-.023.022-.095.076-.102.1-.618.458-1.348 1.354-1.756 1.911-1.35 1.84-1.762 3.694-.33 5.707l.31.399c.07.083.15.164.212.25.11.089.408.451.505.49.842.848 2.455 1.762 3.677 2.25l1.1.383c.037.012.101.025.132.042.336.054.754.197 1.146.264l.945.148 1.631.16c.561.052 1.133.123 1.696.151 2.943.147 6.532-.992 8.462-2.608.988-.828 1.681-1.843 1.822-2.958.02-.164.06-.346.039-.511l-.047-.469c-.254-1.774-1.372-3.402-2.604-4.936-.372-.463-.75-.93-1.173-1.37l-1.019-.988c-1.167-1.086-2.478-2.134-3.959-2.998l-.72-.401c-.516-.274-1.443-.684-1.32-1.242.092-.417.854-.814.898-1.06-.032-.03-.061-.026-.094-.05Zm-.14 5.281c1.005.147 1.188.748 1.366 1.358l.475 1.495c.111.324.178.724.438 1.008.5.546 1.458.552 2.247.658l1.431.177c.256.03.554.032.798.099.695.191 1.062.677.92 1.207-.095.36-.484.58-.882.764l-2.046.923c-1.264.556-1.267.869-1.028 1.87l.284 1.193c.114.43.397 1.064.206 1.487l-.008.02c-.207.469-.973.744-1.624.61-.527-.108-.962-.46-1.349-.73l-1.041-.696c-.516-.341-1.027-.774-1.767-.78-.484.016-.886.203-1.3.363l-1.58.64c-.398.169-.832.385-1.305.421-.945.074-1.828-.645-1.545-1.347.082-.202.201-.397.312-.591l.764-1.485c.43-.852.55-1.26-.367-1.942l-2.027-1.444c-.152-.11-.314-.228-.422-.363-.304-.383-.18-.933.215-1.234.467-.356 1.2-.24 1.813-.204l1.25.07c1.607.124 2.209.233 2.912-.865l.959-1.586c.352-.598.76-1.28 1.901-1.096Z"/><defs><linearGradient id="a" x1="143.136" x2="39.119" y1="84.091" y2="75.701" gradientUnits="userSpaceOnUse"><stop stop-color="#2CE4F0"/><stop offset="1" stop-color="#A3CAF6"/></linearGradient><linearGradient id="b" x1="76.992" x2="105.532" y1="69.063" y2="72.276" gradientUnits="userSpaceOnUse"><stop stop-color="#0945E4"/><stop offset="1" stop-color="#2CFFF0"/></linearGradient></defs></svg>