<svg width="151" height="152" viewBox="0 0 151 152" fill="none" xmlns="http://www.w3.org/2000/svg">
<g id="robot1">
<path id="Vector" d="M75.1082 14.8372C70.4267 13.7702 72.667 7.07968 76.6837 8.15365C79.9244 9.0202 79.9159 14.3253 76.8743 14.8406C76.4515 14.6915 75.5483 14.7598 75.1082 14.8372Z" fill="#00E68F"/>
<path id="Vector_2" d="M71.3816 45.7549C72.4891 45.912 79.2245 46.1683 80.2404 45.7854L80.2891 53.0851L71.3193 53.0287L71.3816 45.7549Z" fill="#1294DD"/>
<path id="Vector_3" d="M42.9597 72.1055L42.2271 72.0558C36.477 71.3968 32.8248 69.4267 31.7683 65.8835C23.5408 65.6407 18.3344 67.4358 16.7028 72.6409C16.3002 73.9254 16.4822 75.3533 16.4801 76.6627L16.5126 85.9988C16.3672 88.2915 10.3567 88.5611 9.84191 86.0044C9.70143 85.3068 9.76416 84.5822 9.76282 83.8796L9.7638 75.5119C9.76792 73.6676 9.81825 71.8984 10.5666 70.1005C12.4277 65.6293 18.793 62.2612 26.2344 61.7694C27.3097 61.6983 31.7181 61.8113 32.2644 61.3599C34.9183 59.1668 38.6631 58.3746 43.0344 58.5012L43.6667 58.5625C41.0678 62.374 41.7502 68.1243 42.9597 72.1055Z" fill="#1170E3"/>
<path id="Vector_4" d="M107.588 58.459C110.415 58.5165 112.876 58.735 114.955 60.8887L116.071 62.1468C117.462 62.1739 118.899 62.1348 120.28 62.2983C126.451 63.0298 130.651 67.496 131.595 73.5533C131.822 75.0118 131.746 76.521 131.744 77.9926L131.732 88.6721C131.738 90.2062 132.108 92.3047 130.033 92.6814L129.929 92.7011C128.858 92.8896 128.004 92.3441 127.342 91.5739L127.245 91.4662C126.691 90.7333 126.917 87.4671 126.916 86.3854L126.913 78.6832C126.912 77.2838 127.02 75.7813 126.832 74.3972L126.817 74.2768C126.323 70.5449 123.231 68.0166 119.748 67.1736C118.696 66.919 117.373 67.0353 116.284 67.0224C116.044 67.5585 116.054 68.3037 115.844 68.8919L115.801 69.0125C114.55 72.4984 111.251 73.7712 107.895 74.2654C108.549 69.0713 110.03 63.447 107.588 58.459Z" fill="url(#paint0_linear_216_29235)"/>
<path id="Vector_5" d="M57.1553 113.258L63.2594 113.328C63.2779 114.285 63.4684 115.257 63.513 116.239L63.8833 132.401C63.8886 133.071 64.3507 132.911 64.847 133.183C67.6892 134.738 69.1975 138.139 68.7606 141.301C68.097 146.1 62.5497 148.771 58.2106 147.216C51.8422 144.935 51.2039 135.868 57.6492 132.903C57.1562 129.445 57.3987 125.977 57.3045 122.495L57.1579 115.545C57.1559 114.801 57.0534 113.99 57.1553 113.258Z" fill="#7E9BE5"/>
<path id="Vector_6" d="M87.8394 113.498L94.2627 113.142L93.8531 132.677C94.5953 133.266 95.3987 133.845 96.0675 134.517C103.084 141.566 92.7112 152.107 85.2617 145.78C80.7556 141.954 82.3282 134.792 87.658 132.557L87.8394 113.498Z" fill="#7E9BE5"/>
<path id="Vector_7" d="M75.108 14.9262C75.5482 14.7597 76.4514 14.6914 76.8742 14.834L76.9614 14.9078C77.1857 14.9866 77.4811 14.9399 77.7189 14.9449L84.8316 14.9892C89.3145 15.0007 93.4194 15.4517 95.9113 19.9563C96.9631 21.8576 96.9475 23.9243 96.951 26.0231L96.9598 35.4483C96.9589 39.6001 96.5893 42.2741 92.3444 44.4977C89.3257 46.0791 85.8915 45.663 82.5942 45.6671C81.8704 45.668 80.9426 45.5547 80.2402 45.6903C79.2243 46.1684 72.489 45.912 71.4293 45.7635C70.6797 45.5805 69.7871 45.6733 69.0242 45.6716C66.5279 45.6654 64.0403 45.7696 61.5733 45.3873C58.4633 44.9052 55.3692 42.193 54.7852 39.0778L54.7702 38.9932C54.5582 37.8698 54.6568 36.6105 54.656 35.4668L54.6577 25.2481C54.6712 20.0406 56.7715 16.8354 62.0931 15.274C63.3677 14.9 64.8079 14.9971 66.1242 14.996L71.8533 14.9948C72.8633 14.9933 73.962 15.0536 74.9636 14.9433L75.108 14.9262Z" fill="#2CE4F0"/>
<path id="Vector_8" d="M84.8209 23.2645C89.081 23.0071 92.1194 26.9225 90.9922 31.1033L90.9555 31.2355C90.252 33.8357 88.1323 35.4251 85.4577 35.6729C84.8438 35.7287 84.1993 35.6888 83.6009 35.5352L83.4576 35.4979C81.3004 34.9474 79.5971 33.1739 79.1978 30.9605L79.0844 30.2078C78.77 26.6088 81.2026 23.5741 84.8209 23.2645Z" fill="white"/>
<path id="Vector_9" d="M84.5418 27.2952C87.7696 26.8549 88.2179 30.4727 85.6913 31.7106C82.7431 32.5967 81.9914 28.3842 84.5418 27.2952Z" fill="#2CE4F0"/>
<path id="Vector_10" d="M66.1602 23.2654C74.2277 23.2913 75.0722 34.8036 66.9771 35.7212C63.9058 35.7453 61.3437 34.3476 60.4925 31.212L60.4596 31.0885C59.3779 27.1473 62.1946 23.529 66.1602 23.2654Z" fill="white"/>
<path id="Vector_11" d="M65.8915 27.3559C69.1113 27.2452 69.5996 30.7161 66.9779 31.6465C65.9024 31.9375 64.7743 31.4689 64.3858 30.3845L64.3154 30.1825C63.8805 28.8708 64.6019 27.6909 65.8915 27.3559Z" fill="#2CE4F0"/>
<path id="Vector_12" d="M43.6251 58.5142C44.3413 58.4293 44.225 58.341 44.676 57.7573C47.8392 53.6639 51.1292 53.0317 55.9381 53.0279L71.3194 53.0276L80.298 53.0438L95.7371 53.0273C100.09 53.0279 103.89 53.6627 106.671 57.4258C106.947 57.8004 107.192 58.2006 107.588 58.459C110.03 63.447 108.549 69.0713 107.895 74.2654L107.867 74.3972C107.616 75.6231 107.474 76.8997 107.311 78.1409L104.737 102.085C104.287 106.137 103.542 109.765 99.8912 112.216C98.1307 113.397 96.2859 113.666 94.2628 114.083L87.8369 114.176L66.8132 114.055C65.6886 114.058 64.3453 113.929 63.2598 114.211L57.0477 114.132C50.6937 112.929 47.6427 109.834 46.8588 103.655L43.9323 76.2456C43.843 75.6477 43.8136 74.8987 43.5714 74.3458C42.7008 69.7108 42.2096 63.016 44.0802 58.5785L43.6251 58.5142Z" fill="#2CE4F0"/>
<path id="Vector_13" d="M62.2794 78.6046C61.3545 76.5804 61.3269 71.6731 61.8563 69.4058L61.8816 69.2936C62.2607 67.6491 63.6163 66.0955 65.0239 65.227C66.6168 64.244 68.4267 64.4178 70.2169 64.4154L80.7578 64.4149C81.9429 64.416 83.3023 64.2868 84.4569 64.5614L84.798 64.6465C89.4569 65.8201 90.0039 69.5359 90.0036 73.4965C90.0036 75.2227 90.0527 76.9806 89.333 78.5914C87.9565 82.8935 82.3983 83.0171 78.7838 83.0232L69.649 83.0238C68.974 83.0203 68.2153 83.072 67.5579 82.912L66.8235 82.7402C64.8005 82.2325 62.9771 80.5797 62.2794 78.6046Z" fill="url(#paint1_linear_216_29235)"/>
</g>
<defs>
<linearGradient id="paint0_linear_216_29235" x1="115.621" y1="56.7386" x2="124.634" y2="93.8139" gradientUnits="userSpaceOnUse">
<stop stop-color="#288FE0"/>
<stop offset="1" stop-color="#004BEC"/>
</linearGradient>
<linearGradient id="paint1_linear_216_29235" x1="75.6451" y1="83.0484" x2="75.8514" y2="64.3304" gradientUnits="userSpaceOnUse">
<stop stop-color="#72DBF9"/>
<stop offset="1" stop-color="#E9F7FB"/>
</linearGradient>
</defs>
</svg>
