<svg width="20" height="21" viewBox="0 0 20 21" fill="none" xmlns="http://www.w3.org/2000/svg">
<path id="gray circle" d="M12.2945 3.40287C14.5252 4.12461 16.2976 5.9714 16.9902 8.29581C17.1837 8.96448 17.7643 9.43149 18.4264 9.43149H18.4672C19.4858 9.43149 20.2192 8.41257 19.9238 7.40426C18.9357 4.02909 16.3791 1.36503 13.1399 0.335499C12.1824 0.0277004 11.2046 0.79189 11.2046 1.85327V1.89572C11.2046 2.59623 11.6528 3.20121 12.2945 3.40287ZM16.9902 12.6899C16.2976 15.0249 14.5252 16.8611 12.2945 17.5828C11.6528 17.7845 11.2046 18.3895 11.2046 19.0794V19.1218C11.2046 20.1832 12.1824 20.9474 13.1501 20.6396C16.3892 19.6101 18.9459 16.946 19.934 13.5708C20.2294 12.5625 19.496 11.5436 18.4876 11.5436H18.4366C17.7643 11.5542 17.1837 12.0212 16.9902 12.6899ZM9.16738 19.1006C9.16738 18.3895 8.70901 17.7845 8.05711 17.5722C5.16429 16.6276 3.05579 13.815 3.05579 10.4929C3.05579 7.17076 5.16429 4.35811 8.05711 3.41349C8.70901 3.20121 9.16738 2.59623 9.16738 1.88511V1.87449C9.16738 0.813118 8.17934 0.0277003 7.20149 0.346113C3.03542 1.67283 0 5.71667 0 10.4929C0 15.269 3.03542 19.3129 7.20149 20.6396C8.17934 20.958 9.16738 20.1726 9.16738 19.1006Z" fill="#707070"/>
</svg>
