<svg width="20" height="21" viewBox="0 0 20 21" fill="none" xmlns="http://www.w3.org/2000/svg">
<path id="tick icon" d="M10 0.266724C4.489 0.266724 0 4.75572 0 10.2667C0 15.7777 4.489 20.2667 10 20.2667C15.511 20.2667 20 15.7777 20 10.2667C20 4.75572 15.511 0.266724 10 0.266724ZM10 2.26672C14.4301 2.26672 18 5.8366 18 10.2667C18 14.6968 14.4301 18.2667 10 18.2667C5.56988 18.2667 2 14.6968 2 10.2667C2 5.8366 5.56988 2.26672 10 2.26672ZM14.293 6.55969L8 12.8527L5.70703 10.5597L4.29297 11.9738L8 15.6808L15.707 7.97375L14.293 6.55969Z" fill="#70DB47"/>
</svg>
