<svg xmlns="http://www.w3.org/2000/svg" width="30" height="31" fill="none"><rect width="30" height="30" y=".789" fill="#14CBF3" rx="2"/><path fill="#fff" d="M9.259 13.88v.959c0 .291-.054.602-.16.932a3.848 3.848 0 0 1-.458.953c-.2.306-.44.572-.725.8l-.682-.555c.224-.32.418-.651.581-.996.167-.348.25-.719.25-1.113v-.98H9.26Zm2.727 0v.959c0 .291-.054.602-.16.932a3.85 3.85 0 0 1-.458.953c-.199.306-.44.572-.725.8l-.681-.555c.223-.32.417-.651.58-.996.167-.348.25-.719.25-1.113v-.98h1.194Zm7.204 0v.959c0 .291-.053.602-.16.932a3.85 3.85 0 0 1-.458.953c-.199.306-.44.572-.724.8l-.682-.555c.224-.32.417-.651.58-.996.168-.348.251-.719.251-1.113v-.98h1.193Zm2.727 0v.959c0 .291-.053.602-.16.932a3.843 3.843 0 0 1-.458.953c-.198.306-.44.572-.724.8l-.682-.555c.224-.32.418-.651.58-.996.168-.348.251-.719.251-1.113v-.98h1.193Z"/></svg>