<svg width="64" height="64" viewBox="0 0 64 64" fill="none" xmlns="http://www.w3.org/2000/svg">
<g id="ufo" clip-path="url(#clip0_216_29301)">
<path id="Vector" d="M35.5327 14.9655C35.5058 14.8614 35.5239 14.7535 35.5461 14.6479L36.7017 10.1176C36.7645 9.87398 36.8093 9.53982 36.9391 9.32696C37.4311 8.52017 38.5888 9.1842 38.4271 10.0642C38.3457 10.5065 38.1852 10.9622 38.0716 11.3998L37.5891 13.262C37.461 13.7564 37.2451 14.8688 36.9437 15.2764L35.5327 14.9655Z" fill="#2CE4F0"/>
<path id="Vector_2" d="M28.0206 43.8852L29.5868 44.3577L27.3794 52.9871C27.3136 53.2499 27.2812 53.5655 27.1632 53.809C26.857 54.4414 25.8127 54.093 25.6597 53.5019L25.651 53.4651C25.5538 53.0872 25.8259 52.4311 25.9217 52.0564L28.0206 43.8852Z" fill="#0039CF"/>
<path id="Vector_3" d="M36.9414 15.2853C43.9053 17.4401 47.3254 25.0027 45.1845 31.8304L44.7868 33.0142C44.7116 33.2287 44.6159 33.4392 44.5647 33.661C44.3908 33.739 43.9702 33.6328 43.7932 33.5903L21.4031 27.8382C21.0504 27.7444 20.6859 27.6596 20.3479 27.5208L20.121 27.4092L20.4202 25.257C21.3141 19.5345 26.9011 14.8329 32.6746 14.7225C33.6434 14.704 34.5773 14.8173 35.5314 14.9704L36.9414 15.2853Z" fill="#0039CF"/>
<path id="Vector_4" d="M44.5612 33.6743C45.1126 33.7466 46.1341 33.9753 46.6321 34.2025C48.9167 35.2449 51.2955 37.9303 52.761 40.0277L53.7845 41.6238C54.7066 43.1335 55.8854 44.7925 54.3392 46.3081C51.7637 48.8327 43.0405 47.1092 39.9015 46.5449L35.645 45.6908C35.4716 45.6522 35.2945 45.6484 35.1207 45.6107L30.7314 44.4969C30.6286 44.4741 29.6221 44.3047 29.604 44.3138L29.585 44.3642L28.0153 43.8919C27.4746 43.6123 26.8445 43.496 26.2588 43.3443L23.3181 42.5796C23.1104 42.5203 22.9193 42.4236 22.7134 42.3634L20.0366 41.6126L13.058 39.0802C10.4244 38.0325 5.23956 36.0292 5.31835 32.6788C5.36373 30.7501 9.98381 28.8649 11.6883 28.179C13.4922 27.453 15.4512 26.7932 17.4211 26.8475L18.064 26.8848C18.5891 26.8903 19.46 27.1499 19.9625 27.3231L20.126 27.3897L20.3479 27.5206C20.6859 27.6594 21.0503 27.7442 21.4031 27.838L43.7932 33.5901C43.9702 33.6326 44.3908 33.7388 44.5612 33.6743Z" fill="#2CE4F0"/>
<path id="Vector_5" d="M14.6156 30.8662C14.777 30.889 14.9572 30.9612 15.0982 31.042L15.1373 31.0649C16.4598 31.8292 15.841 33.8116 14.235 33.7253C12.1493 33.1651 12.7845 30.6139 14.6156 30.8662Z" fill="#0039CF"/>
<path id="Vector_6" d="M47.429 39.3034C49.4335 39.8964 48.5681 42.4618 46.8885 42.1049C44.8377 41.3872 45.5629 38.9664 47.429 39.3034Z" fill="#0039CF"/>
<path id="Vector_7" d="M20.7945 32.4272L20.8171 32.43C22.5499 32.741 22.275 35.5889 20.2175 35.1923C20.0518 35.1499 19.8654 35.1032 19.7183 35.0144L19.6853 34.9937C18.383 34.1891 19.0785 32.2308 20.7945 32.4272Z" fill="#0039CF"/>
<path id="Vector_8" d="M41.2562 37.6846C43.1297 38.0753 42.7885 40.7869 40.906 40.5998C38.9865 40.1744 39.3393 37.6425 41.2562 37.6846Z" fill="#0039CF"/>
<path id="Vector_9" d="M36.4727 36.4571C36.6408 36.4829 36.8254 36.5306 36.9738 36.6148L37.011 36.6365C38.3753 37.4243 37.5852 39.5155 36.0913 39.3091C35.8769 39.2584 35.6312 39.1753 35.4459 39.0575L35.4112 39.0351C34.3154 38.3397 34.6929 36.3099 36.4727 36.4571Z" fill="#0039CF"/>
<path id="Vector_10" d="M25.549 33.6242C27.3796 33.9682 26.9538 36.795 25.0185 36.4755C22.9222 35.8794 23.798 33.376 25.549 33.6242Z" fill="#0039CF"/>
<path id="Vector_11" d="M31.1772 34.1999C32.3202 34.416 31.922 35.2912 31.7197 36.0887L31.2706 37.8525C31.0398 38.7595 30.9485 40.5651 29.8422 40.6705C29.4018 40.6466 29.0763 40.1937 29.0725 39.7778L29.0726 39.7409C29.068 39.4771 29.1765 39.1924 29.2425 38.9371L29.997 36.0236C30.1764 35.3316 30.2923 34.266 31.1772 34.1999Z" fill="#0039CF"/>
</g>
<defs>
<clipPath id="clip0_216_29301">
<rect width="52" height="52" fill="white" transform="translate(13.293) rotate(14.4184)"/>
</clipPath>
</defs>
</svg>
