<svg xmlns="http://www.w3.org/2000/svg" width="173" height="160" fill="none"><g clip-path="url(#a)"><path fill="#2CE4F0" d="M65.913 44.33c-.219-.15-.36-.371-.489-.595l-5.163-9.89c-.276-.532-.733-1.203-.834-1.777-.382-2.175 2.863-2.645 3.983-.814.563.92 1 1.978 1.495 2.936l2.108 4.077c.56 1.081 1.954 3.412 2.049 4.587l-3.149 1.477Z"/><path fill="#0039CF" d="m98.617 107.656 3.7-1.408 9.823 18.846c.302.572.752 1.191.925 1.804.448 1.59-2.073 2.468-3.317 1.617l-.075-.054c-.794-.545-1.345-2.129-1.772-2.947l-9.284-17.858ZM69.072 42.873c16.543-6.162 35.192 2.61 42.224 18.092l1.169 2.722c.207.498.368 1.019.631 1.495-.2.393-1.161.809-1.561.987L60.246 88.117c-.813.34-1.634.713-2.492.95l-.606.126-2.921-4.337c-7.582-11.673-4.713-28.282 5.934-36.832 1.786-1.435 3.72-2.58 5.758-3.682l3.153-1.468Z"/><path fill="#2CE4F0" d="M113.111 65.212c1.151-.667 3.436-1.73 4.737-2.037 5.971-1.413 14.776.018 20.917 1.703l4.501 1.415c4.172 1.405 9.066 2.71 8.619 7.696-.745 8.304-19.889 17.793-26.688 21.31l-9.363 4.606c-.387.18-.726.43-1.113.612l-10.032 4.328c-.229.107-2.391 1.255-2.41 1.298l.046.119-3.707 1.413c-1.466.275-2.836.975-4.18 1.547l-6.751 2.866c-.485.193-1 .294-1.483.482l-6.234 2.51-17.183 5.498c-6.633 1.908-19.596 5.773-24.868-.419-3.036-3.564 2.577-13.666 4.663-17.375 2.208-3.926 4.814-7.956 8.595-10.706l1.266-.862c.994-.75 3.046-1.538 4.269-1.95l.414-.116.628-.084c.858-.237 1.679-.61 2.492-.95l51.289-21.947c.4-.178 1.361-.594 1.576-.957Z"/><path fill="#0039CF" d="M52.418 103.425c.34-.192.794-.321 1.19-.379l.11-.015c3.716-.526 5.763 3.965 2.612 6.131-4.817 2-7.753-3.546-3.912-5.737ZM127.595 71.275c4.718-1.823 7.246 4.082 3.519 5.864-5.006 1.664-7.563-3.776-3.519-5.864ZM66.53 97.322l.046-.028c3.752-1.942 7.844 3.622 3.345 5.878-.38.163-.805.348-1.224.399l-.096.01c-3.743.424-5.607-4.134-2.072-6.26ZM113.402 77.266c4.145-2 7.892 3.411 4.06 5.795-4.287 2.004-7.722-3.1-4.06-5.795ZM102.447 81.957c.357-.196.78-.376 1.195-.439l.104-.014c3.833-.544 5.735 4.392 2.6 6.178-.484.218-1.079.423-1.617.477l-.102.01c-3.179.323-5.756-3.905-2.18-6.212ZM77.381 92.616c3.989-2.023 7.764 3.72 3.618 5.94-4.895 1.95-7.303-3.858-3.618-5.94ZM88.866 85.52c2.493-1.26 3.162.903 4.073 2.642l2.011 3.85c1.035 1.979 3.785 5.386 1.881 7.177-.864.594-2.207.243-2.887-.506l-.06-.067c-.435-.472-.692-1.145-.981-1.704l-3.3-6.376c-.783-1.515-2.29-3.616-.737-5.015Z"/></g><defs><clipPath id="a"><path fill="#fff" d="M0 49.346 115.38 0l57.202 110.084-115.38 49.346z"/></clipPath></defs></svg>