<svg width="169" height="169" viewBox="0 0 169 169" fill="none" xmlns="http://www.w3.org/2000/svg">
<g id="universe 1" clip-path="url(#clip0_387_38622)">
<path id="Subtract" fill-rule="evenodd" clip-rule="evenodd" d="M43.5581 64.4348C41.7866 68.274 41.0427 71.0354 40.2508 75.1646C38.8283 74.96 32.3479 78.7449 31.0936 79.5276L27.4705 82.0279C11.686 93.8372 18.6103 105.328 36.7591 107.83L46.8544 108.389C47.3583 109.437 48.0696 110.308 48.7967 111.197C48.9054 111.33 49.0145 111.464 49.1234 111.598L52.8891 115.948C53.4544 116.664 56.101 119.449 56.9729 119.795C57.7981 120.588 58.843 121.272 59.8211 121.913C59.9582 122.003 60.0941 122.092 60.2278 122.18C78.6282 134.325 102.022 130.88 117.159 115.018L119.084 112.796C119.125 112.744 119.175 112.687 119.227 112.627C119.381 112.449 119.557 112.246 119.618 112.068C122.336 109.167 125.963 102.247 126.907 98.6267C127.326 97.9897 127.692 95.7011 127.943 94.1319C128.079 93.2782 128.182 92.6375 128.24 92.5912C128.261 92.5745 128.88 92.3195 129.609 92.019C130.567 91.6237 131.717 91.1498 131.948 91.0363C138.934 87.5991 148.862 81.9611 149.785 73.3541L149.823 72.8846C150.163 61.7334 131.964 59.1896 123.952 59.0967C123.176 59.0877 122.77 59.1426 122.204 59.6975L120.972 57.8739C114.7 48.5932 103.674 41.0363 92.5629 38.8705C72.3394 34.9287 52.2104 45.6859 43.5581 64.4348ZM40.946 92.4079L41.4737 94.4853C41.5232 94.7249 41.6077 94.9843 41.6906 95.2391C41.743 95.4004 41.7949 95.5598 41.8369 95.7111L43.2781 100.325C42.0717 100.076 40.6788 99.9212 39.2216 99.7598C35.1471 99.3083 30.5705 98.8013 28.1651 96.0102C27.8677 95.6649 27.4381 95.1408 27.4897 94.6622L27.5024 94.562C27.9076 90.761 33.701 87.1457 36.9552 85.4223L39.7208 84.1217C39.7663 86.8831 40.3323 89.7262 40.946 92.4079ZM130.845 81.6736C132.908 80.9465 137.672 78.7788 140.223 75.9246C140.457 75.6626 140.692 75.4062 140.922 75.1547C143.825 71.981 146.006 69.5974 137.386 66.9118C129.943 64.593 128.201 65.3747 128.26 66.0554L130.845 81.6736Z" fill="url(#paint0_linear_387_38622)"/>
</g>
<defs>
<linearGradient id="paint0_linear_387_38622" x1="74.0107" y1="39.1848" x2="94.3714" y2="128.213" gradientUnits="userSpaceOnUse">
<stop stop-color="#AAC1F2"/>
<stop offset="1" stop-color="#1EDCF9"/>
</linearGradient>
<clipPath id="clip0_387_38622">
<rect width="142.836" height="142.836" fill="white" transform="translate(0.572754 27.9409) rotate(-11.0467)"/>
</clipPath>
</defs>
</svg>
